<svg xmlns="http://www.w3.org/2000/svg" xmlns:svg="http://www.w3.org/2000/svg" id="Layer_1" x="0" y="0" version="1.1" viewBox="0 0 233.2 69.1" style="enable-background:new 0 0 233.2 69.1" xml:space="preserve"><metadata id="metadata3573"/><style id="style3501" type="text/css">.st0{fill:#373737}.st1{fill:#e82429}.st2{fill:#6289c6}.st3{fill:#f9c515}.st4{fill:#8061a9}.st5{fill:#f17423}.st6{fill:#97c93d}.st7{fill:#cadd72}.st8{fill:#1e2222}</style><g id="g3503"><g id="g3505"><g id="g3507"><path id="path3509" d="M39.4,23.8H26.6l-6.4,11.1l6.4,11h12.8l6.4-11L39.4,23.8z M37.7,42.9h-9.4l-4.7-8l4.7-8.1h9.4l4.7,8.1 L37.7,42.9z" class="st0"/><polygon id="polygon3511" points="37.7 26.7 28.3 26.7 23.6 34.9 28.3 42.9 37.7 42.9 42.4 34.9" class="st1"/></g><g id="g3513"><path id="path3515" d="M39.4,47.4H26.6l-6.4,11.1l6.4,11h12.8l6.4-11L39.4,47.4z M37.7,66.6h-9.4l-4.7-8l4.7-8.1h9.4l4.7,8.1 L37.7,66.6z" class="st0"/><polygon id="polygon3517" points="37.7 50.4 28.3 50.4 23.6 58.5 28.3 66.6 37.7 66.6 42.4 58.5" class="st2"/></g><g id="g3519"><path id="path3521" d="M39.4,0.1H26.6l-6.4,11.1l6.4,11h12.8l6.4-11L39.4,0.1z M37.7,19.2h-9.4l-4.7-8L28.3,3h9.4l4.7,8.1 L37.7,19.2z" class="st0"/><polygon id="polygon3523" points="37.7 3 28.3 3 23.6 11.2 28.3 19.2 37.7 19.2 42.4 11.2" class="st3"/></g></g><g id="g3525"><g id="g3527"><path id="path3529" d="M60.2,35.7H47.5l-6.4,11.1l6.4,11h12.8l6.4-11L60.2,35.7z M58.5,54.8h-9.4l-4.7-8l4.7-8.1h9.4l4.7,8.1 L58.5,54.8z" class="st0"/><polygon id="polygon3531" points="58.5 38.6 49.2 38.6 44.5 46.8 49.2 54.8 58.5 54.8 63.3 46.8" class="st4"/></g><g id="g3533"><path id="path3535" d="M60.2,12H47.5L41.1,23l6.4,11h12.8l6.4-11L60.2,12z M58.5,31.1h-9.4l-4.7-8l4.7-8.1h9.4l4.7,8.1L58.5,31.1z" class="st0"/><polygon id="polygon3537" points="58.5 14.9 49.2 14.9 44.5 23.1 49.2 31.1 58.5 31.1 63.3 23.1" class="st5"/></g></g><g id="g3539"><g id="g3541"><path id="path3543" d="M18.5,35.7H5.8l-6.4,11.1l6.4,11h12.8l6.4-11L18.5,35.7z M16.8,54.8H7.5l-4.7-8l4.7-8.1h9.4l4.7,8.1 L16.8,54.8z" class="st0"/><polygon id="polygon3545" points="16.8 38.6 7.5 38.6 2.8 46.8 7.5 54.8 16.8 54.8 21.6 46.8" class="st6"/></g><g id="g3547"><path id="path3549" d="M18.5,12H5.8L-0.6,23l6.4,11h12.8L25,23L18.5,12z M16.8,31.1H7.5l-4.7-8l4.7-8.1h9.4l4.7,8.1L16.8,31.1z" class="st0"/><polygon id="polygon3551" points="16.8 14.9 7.5 14.9 2.8 23.1 7.5 31.1 16.8 31.1 21.6 23.1" class="st7"/></g></g></g><g id="g3553" transform="matrix(0.81996273,0,0,0.81996273,12.805528,8.2091107)"><g id="g3555"><path id="path3557" d="m 85,17.4 c 1.6,0 3.1,0.2 4.5,0.5 1.4,0.3 2.6,0.8 3.7,1.4 l 0,4.4 C 91.8,23.2 90.5,22.8 89.3,22.5 88,22.2 86.8,22 85.5,22 c -1.3,0 -2.6,0.2 -3.9,0.6 -1.3,0.4 -2.4,1.1 -3.5,2.1 -1,1 -1.8,2.3 -2.5,3.9 -0.6,1.6 -0.9,3.6 -0.9,6 0,1.7 0.2,3.3 0.7,4.8 0.5,1.5 1.2,2.7 2.1,3.8 0.9,1.1 2.1,1.9 3.4,2.5 1.4,0.6 3,0.9 4.8,0.9 1.3,0 2.6,-0.1 4,-0.4 1.3,-0.3 2.6,-0.7 3.9,-1.2 l 0,4.4 c -0.4,0.2 -0.9,0.5 -1.5,0.7 -0.6,0.2 -1.3,0.4 -2.1,0.6 -0.7,0.2 -1.5,0.3 -2.4,0.4 -0.8,0.1 -1.7,0.2 -2.5,0.2 -2.2,0 -4.2,-0.3 -6.2,-1 -1.9,-0.7 -3.6,-1.7 -5.1,-3 -1.4,-1.4 -2.6,-3.1 -3.4,-5.2 -0.8,-2.1 -1.3,-4.5 -1.3,-7.4 0,-2.1 0.2,-4 0.7,-5.7 0.4,-1.7 1,-3.2 1.8,-4.5 0.8,-1.3 1.7,-2.4 2.7,-3.3 1,-0.9 2.1,-1.6 3.3,-2.2 1.2,-0.6 2.4,-1 3.6,-1.3 1.4,-0.1 2.6,-0.3 3.8,-0.3 z" class="st8" style="fill:#1e2222"/><path id="path3559" d="m 101.8,10.8 0,-5.9 5.3,0 0,5.9 -5.3,0 z m 0.1,39.7 0,-32.2 5.3,0 0,32.2 -5.3,0 z" class="st8" style="fill:#1e2222"/><path id="path3561" d="m 118,50.5 0,-49.1 5.3,0 0,49.1 -5.3,0 z" class="st8" style="fill:#1e2222"/><path id="path3563" d="m 134,10.8 0,-5.9 5.3,0 0,5.9 -5.3,0 z m 0.1,39.7 0,-32.2 5.3,0 0,32.2 -5.3,0 z" class="st8" style="fill:#1e2222"/><path id="path3565" d="m 162.7,51.3 c -1.7,0 -3.2,-0.2 -4.5,-0.5 -1.3,-0.4 -2.5,-0.9 -3.5,-1.5 -1,-0.7 -1.9,-1.4 -2.6,-2.4 -0.7,-0.9 -1.3,-1.9 -1.7,-3 -0.3,-0.8 -0.5,-1.7 -0.7,-2.7 -0.1,-1 -0.2,-2 -0.2,-3.2 l 0,-19.7 5.3,0 0,19.7 c 0,1.8 0.2,3.3 0.7,4.5 0.5,1.4 1.4,2.4 2.6,3.2 1.2,0.8 2.8,1.2 4.6,1.2 2,0 3.6,-0.4 4.8,-1.3 1.2,-0.9 2.1,-2 2.6,-3.5 0.4,-1.1 0.6,-2.5 0.6,-4.1 l 0,-19.7 5.3,0 0,19.8 c 0,1.1 -0.1,2.1 -0.2,3 -0.1,0.9 -0.3,1.8 -0.6,2.6 -0.4,1.1 -1,2.1 -1.7,3.1 -0.7,0.9 -1.6,1.7 -2.6,2.4 -1,0.7 -2.2,1.2 -3.6,1.6 -1.4,0.3 -2.9,0.5 -4.6,0.5 z" class="st8" style="fill:#1e2222"/><path id="path3567" d="m 212.1,50.5 -5.3,0 0,-20.7 c 0,-1.4 -0.2,-2.6 -0.5,-3.6 -0.3,-1 -0.7,-1.8 -1.3,-2.4 -0.6,-0.6 -1.3,-1.1 -2.1,-1.4 -0.8,-0.3 -1.7,-0.4 -2.7,-0.4 -1.9,0 -3.6,0.5 -5.1,1.5 -1.5,1 -2.9,2.4 -4.1,4.2 l 0,22.9 -5.3,0 0,-32.3 4.1,0 1,4.5 0.1,0 c 0.6,-0.7 1.2,-1.4 1.9,-2.1 0.7,-0.6 1.5,-1.2 2.3,-1.7 0.8,-0.5 1.8,-0.9 2.8,-1.1 1,-0.3 2.1,-0.4 3.3,-0.4 2.4,0 4.4,0.6 6,1.7 1.6,1.2 2.8,2.7 3.7,4.7 l 0.1,0 c 1.4,-2 3.1,-3.6 4.9,-4.7 1.8,-1.1 4,-1.7 6.4,-1.7 1.1,0 2.3,0.2 3.6,0.5 1.3,0.3 2.4,0.9 3.5,1.7 1.1,0.8 1.9,2 2.6,3.5 0.7,1.5 1.1,3.4 1.1,5.8 l 0,21.6 -5.1,0 0,-20.8 c 0,-1.4 -0.2,-2.6 -0.5,-3.6 -0.3,-1 -0.7,-1.8 -1.3,-2.4 -0.6,-0.6 -1.3,-1.1 -2.1,-1.4 -0.8,-0.3 -1.7,-0.4 -2.7,-0.4 -1.9,0 -3.6,0.5 -5.1,1.5 -1.5,1 -2.9,2.4 -4.2,4.2 l 0,22.8 z" class="st8" style="fill:#1e2222"/></g></g></svg>