<svg xmlns="http://www.w3.org/2000/svg" xmlns:svg="http://www.w3.org/2000/svg" id="1" width="127" height="127" x="0" y="0" version="1.1" viewBox="0 0 127 127" xml:space="preserve"><style id="style1" type="text/css">.st29{fill:url(#SVGID_10_)}.st30{fill:url(#SVGID_11_)}.st31{fill:url(#SVGID_12_)}.st32{fill:url(#SVGID_13_)}</style><linearGradient id="SVGID_1_" x1="10798.377" x2="12458.55" y1="3397.838" y2="3397.838" gradientTransform="rotate(180,6291.3916,3145.4268)" gradientUnits="userSpaceOnUse"><stop offset="0" style="stop-color:#5cc3ff" id="stop8"/><stop offset="1" style="stop-color:#0027a6" id="stop9"/></linearGradient><g id="g291" transform="matrix(0.70833837,0,0,0.72026897,-323.0423,-2572.802)"><linearGradient id="SVGID_10_" x1="509.17" x2="623.213" y1="3564.274" y2="3754.912" gradientUnits="userSpaceOnUse"><stop offset="0" style="stop-color:#5cc3ff" id="stop284"/><stop offset="1" style="stop-color:#0027a6" id="stop285"/></linearGradient><linearGradient id="SVGID_11_" x1="529.695" x2="643.478" y1="3552.103" y2="3742.306" gradientUnits="userSpaceOnUse"><stop offset="0" style="stop-color:#5cc3ff" id="stop286"/><stop offset="1" style="stop-color:#0027a6" id="stop287"/></linearGradient><linearGradient id="SVGID_12_" x1="479.628" x2="593.546" y1="3582.035" y2="3772.465" gradientUnits="userSpaceOnUse"><stop offset="0" style="stop-color:#5cc3ff" id="stop288"/><stop offset="1" style="stop-color:#0027a6" id="stop289"/></linearGradient><linearGradient id="SVGID_13_" x1="456.363" x2="570.27" y1="3595.895" y2="3786.305" gradientUnits="userSpaceOnUse"><stop offset="0" style="stop-color:#5cc3ff" id="stop290"/><stop offset="1" style="stop-color:#0027a6" id="stop291"/></linearGradient><g id="g1" transform="translate(-0.4661594,0.24136026)"><path id="path285" d="m 514.83,3625.77 c -5.22,8.11 85.18,50.51 79.09,49.79 10.27,7.43 3.07,23.53 -0.86,32.9 -16.11,7.56 8.45,23.65 8.95,5.92 7.2,-14.27 14.19,-38.08 -2.81,-48.09 0,0 -72.55,-41.23 -72.55,-41.23 9.87,-19.98 42.41,-11.93 41.68,10.52 0,1.76 1.43,3.19 3.19,3.19 21.51,1.3 -5.44,-40.46 -25.35,-36.02 -14.43,-0.01 -27.03,9.25 -31.34,23.02 z" class="st29" style="fill:url(#SVGID_10_)"/><path id="path287" d="m 517.75,3578.84 c -17.51,1.28 -0.73,24.95 6.28,8.83 33.79,-16.52 75.76,10.2 74.94,47.9 0,1.76 1.43,3.19 3.18,3.19 2.76,-0.05 7.38,0.81 7.49,-3.19 1.06,-46.14 -51.22,-78.25 -91.89,-56.73 z" class="st30" style="fill:url(#SVGID_11_)"/><path id="path289" d="m 496.8,3597.21 c -4.18,0.23 -7.4,4.23 -6.55,8.36 -7.15,14.25 -14.07,37.99 2.89,47.96 0,0 72.54,41.23 72.54,41.23 -9.88,19.97 -42.4,11.94 -41.68,-10.52 -0.05,-4.67 -10.63,-4.67 -10.68,0 -0.95,37.06 55.11,44.93 64.4,9.08 0.62,-1.97 -0.23,-4.12 -2.02,-5.14 -14.74,-8.38 -77.29,-43.93 -77.29,-43.93 -10.33,-7.51 -3.02,-23.73 0.99,-33.14 7.88,-2.23 5.57,-14.64 -2.6,-13.9 z" class="st31" style="fill:url(#SVGID_12_)"/><path id="path291" d="m 485.88,3681.06 c -1.72,-0.03 -3.22,1.47 -3.19,3.19 -0.82,43.45 45.51,75.4 85.8,59.4 17.61,0.35 3.13,-24.8 -5.41,-9.4 -33.32,11.9 -70.34,-14.55 -69.72,-50 -0.08,-3.99 -4.74,-3.15 -7.48,-3.19 z" class="st32" style="fill:url(#SVGID_13_)"/></g></g></svg>