<svg xmlns="http://www.w3.org/2000/svg" xmlns:xlink="http://www.w3.org/1999/xlink" id="Layer_1" x="0" y="0" version="1.1" viewBox="0 0 100 100" style="enable-background:new 0 0 100 100" xml:space="preserve"><style type="text/css">.st0{fill:url(#SVGID_1_)}.st1{fill:#fff}.st2{opacity:.6}.st3{opacity:.5}.st4{opacity:.4}</style><g><g><g><radialGradient id="SVGID_1_" cx="14.776" cy="-2.977" r="91.627" gradientUnits="userSpaceOnUse"><stop offset="0" style="stop-color:#3c3fa6"/><stop offset="1" style="stop-color:#3b0340"/></radialGradient><path d="M50,99c-13.3,0-25.4-5.3-34.2-13.9C6.7,76.2,1,63.7,1,50C1,22.9,22.9,1,50,1c13.7,0,26.2,5.7,35.1,14.8 C93.7,24.6,99,36.7,99,50C99,77.1,77.1,99,50,99z" class="st0"/></g><g><circle cx="37.5" cy="81.9" r="5" class="st1"/></g><path d="M48.6,91.9l18.8-43.3c-2.5-0.1-5-0.7-7.2-2L33.2,68.2l1.4-1.8l20-25.1c-1.5-2.4-2.3-5.1-2.3-7.9L9,52.2 l47.6-29.9l0,0c0.1-0.1,0.2-0.2,0.2-0.2c6.1-6.1,15.9-6.1,22,0l0.1,0.1c6,6.1,6,15.9-0.1,21.9c-0.1,0.1-0.2,0.2-0.2,0.2l0,0 L48.6,91.9z" class="st1"/><g class="st2"><circle cx="50.3" cy="14.7" r="3.1" class="st1"/></g><g class="st3"><circle cx="27.7" cy="58" r="1.7" class="st1"/></g><g><circle cx="77.4" cy="69.3" r="1.7" class="st1"/></g><g><circle cx="16.3" cy="36.6" r="1.7" class="st1"/></g><g class="st4"><circle cx="63.7" cy="85.9" r="2.2" class="st1"/></g><g><circle cx="29.4" cy="19.6" r="4.8" class="st1"/></g><g class="st3"><circle cx="88" cy="50" r="4.8" class="st1"/></g></g></g></svg>